<?xml version="1.0" encoding="iso-8859-1"?>
<!-- Generator: Adobe Illustrator 16.0.0, SVG Export Plug-In . SVG Version: 6.00 Build 0)  -->
<!DOCTYPE svg PUBLIC "-//W3C//DTD SVG 1.1//EN" "http://www.w3.org/Graphics/SVG/1.1/DTD/svg11.dtd">
<svg xmlns="http://www.w3.org/2000/svg" xmlns:xlink="http://www.w3.org/1999/xlink" version="1.1" id="Capa_1" x="0px" y="0px" width="512px" height="512px" viewBox="0 0 341.75 341.75" style="enable-background:new 0 0 341.75 341.75;" xml:space="preserve">
<g>
	<g id="Artwork_6_">
		<g id="Layer_5_6_">
			<g>
				<path d="M255.617,109.102c-13.113-0.001-21.438,14.621-23.404,14.621c-1.723,0-9.701-14.621-23.406-14.622      c-13.328,0.001-24.214,10.994-24.929,24.306c-0.399,7.52,2.022,13.242,5.438,18.426c6.824,10.355,36.664,35.287,42.941,35.287      c6.408,0,35.979-24.84,42.85-35.287c3.424-5.207,5.84-10.906,5.438-18.426C279.83,120.095,268.947,109.101,255.617,109.102" fill="#566270"/>
				<path d="M64.891,168.573c8.992-0.001,14.699,10.026,16.049,10.026c1.182,0,6.652-10.026,16.051-10.027      c9.141,0,16.605,7.539,17.094,16.667c0.275,5.157-1.387,9.081-3.73,12.637c-4.68,7.102-25.141,24.195-29.445,24.196      c-4.395,0-24.672-17.034-29.383-24.196c-2.348-3.572-4.004-7.479-3.729-12.637C48.286,176.111,55.749,168.572,64.891,168.573" fill="#566270"/>
				<path d="M322.324,52.569H143.553c-10.711,0-19.424,8.715-19.424,19.428c0,0,0,38.538,0,48.051c0,3-0.621,3.177-3.537,3.177      c-26.232,0-104.934,0-104.934,0C7.025,123.225,0,130.25,0,138.885v104.874c0,8.636,7.025,15.66,15.658,15.66h18.701      l2.672,18.344c0.978,6.724,6.033,11.419,12.291,11.419c3.055,0,6.051-1.127,8.668-3.259l30.213-24.618      c1.037-0.847,3.959-1.886,5.299-1.886h57.063c8.635,0,15.658-7.024,15.658-15.66v-13.361h52.947c2.07,0,6.256,1.489,7.859,2.796      l40.037,32.624c3.229,2.629,6.91,4.02,10.648,4.02c7.617,0,13.775-5.756,14.979-13.996l3.703-25.442h25.928      c10.713,0,19.426-8.715,19.426-19.427V71.997C341.75,61.284,333.037,52.569,322.324,52.569z M142.729,241.338      c0,0-39.908,0.023-54.545,0.023c-4.529,0-8.826,3.029-11.791,5.444l-22.326,18.19l-1.459-10.031      c-0.916-6.289-5.457-13.588-11.959-13.588c-5.268,0-17.152-0.041-17.152-0.041c-4.025,0-7.301-3.273-7.301-7.301v-83.764      c0-4.026,3.275-7.302,7.301-7.302c0,0,72.83,0,97.105,0c3.531,0,3.527,1.992,3.527,3.179c-0.008,18.705,0,64.818,0,64.818      c0,10.712,8.52,19.406,18.535,19.406C151.751,230.375,150.647,241.338,142.729,241.338z M322.939,198.088c0,6.05-4.951,11-11,11      c0,0-14.182,0-22.357,0c-7.939,0-13.736,8.877-14.908,16.926l-2.271,15.605l-31.395-25.582      c-3.883-3.162-9.432-6.949-15.078-6.949c-22.171,0-71.989,0-71.989,0c-6.051,0-11-4.95-11-11v-111c0-6.05,4.949-11,11-11h158      c6.049,0,11,4.95,11,11v111H322.939z" fill="#566270"/>
			</g>
		</g>
	</g>
</g>
<g>
</g>
<g>
</g>
<g>
</g>
<g>
</g>
<g>
</g>
<g>
</g>
<g>
</g>
<g>
</g>
<g>
</g>
<g>
</g>
<g>
</g>
<g>
</g>
<g>
</g>
<g>
</g>
<g>
</g>
</svg>
